<svg width="22" height="22" viewBox="0 0 22 22" fill="none" xmlns="http://www.w3.org/2000/svg">
<path fill-rule="evenodd" clip-rule="evenodd" d="M12.2028 2.97307C13.7987 1.34231 16.3952 1.34231 17.9911 2.97307C19.5752 4.59176 19.5752 7.20741 17.9911 8.8261L11.6435 15.3125C10.499 16.482 8.63423 16.482 7.48974 15.3125C6.35705 14.1551 6.35705 12.2873 7.48974 11.1298L11.4018 7.13217C11.7881 6.73745 12.4212 6.7306 12.816 7.11688C13.2107 7.50316 13.2175 8.13629 12.8313 8.53101L8.91916 12.5286C8.54725 12.9087 8.54725 13.5336 8.91916 13.9137C9.27925 14.2816 9.85394 14.2816 10.214 13.9137L16.5617 7.42726C17.385 6.58597 17.385 5.2132 16.5617 4.37191C15.7502 3.5427 14.4437 3.5427 13.6322 4.37191L5.62275 12.5565C4.34808 13.859 4.34808 15.9796 5.62275 17.2822L4.90804 17.9816L5.62275 17.2822C6.8856 18.5726 8.92395 18.5726 10.1868 17.2822L10.194 17.2748L10.1941 17.2748L18.5426 8.91823C18.933 8.52752 19.5661 8.52722 19.9568 8.91755C20.3476 9.30789 20.3479 9.94106 19.9575 10.3318L11.6124 18.6848C9.56488 20.773 6.23932 20.7717 4.19333 18.681C2.15789 16.6011 2.15789 13.2376 4.19333 11.1576L12.2028 2.97307Z" fill="white"/>
</svg>
