<svg width="60" height="60" viewBox="0 0 60 60" fill="none" xmlns="http://www.w3.org/2000/svg">
<path d="M12.2717 0V52.9889C12.2717 56.847 9.53543 59.9867 6.15869 60C6.15869 60 6.17034 60 6.18198 60H55.1214C57.8227 60 60.0002 57.4989 60.0002 54.4257V0H12.2717Z" fill="#464D57"/>
<path d="M46.2487 8.30188H25.0801V12.4926H46.2487V8.30188Z" fill="#E6E8E8"/>
<path d="M52.5011 20.9801H36.7236V25.1708H52.5011V20.9801Z" fill="#E6E8E8"/>
<path d="M52.5011 29.2286H36.7236V33.4193H52.5011V29.2286Z" fill="#E6E8E8"/>
<path d="M52.5011 37.4636H36.7236V41.6543H52.5011V37.4636Z" fill="#E6E8E8"/>
<path d="M52.5136 45.7115H19.2236V49.9022H52.5136V45.7115Z" fill="#E6E8E8"/>
<path d="M0 52.9357V52.9756C0 56.847 2.74796 59.9867 6.13634 59.9867C6.13634 59.9867 6.14799 59.9867 6.15963 59.9867C2.75961 59.9867 0.0116439 56.8204 0.0116439 52.9357H0Z" fill="#E6E8E8"/>
<path d="M0 28.2971V52.9357C0 56.8204 2.74796 59.9734 6.14799 59.9867C9.52472 59.9867 12.261 56.847 12.261 52.9756V28.2971H0Z" fill="#E6E8E8"/>
<path d="M33.6737 20.9801H19.2236V41.6675H33.6737V20.9801Z" fill="#F0B90B"/>
</svg>
