<svg width="26" height="22" viewBox="0 0 26 22" fill="none" xmlns="http://www.w3.org/2000/svg">
<path d="M2.15157 2.11292C1.41335 2.90412 1 3.97547 1 5.09091V16.9091C1 18.0245 1.41335 19.0959 2.15157 19.8871C2.89005 20.6786 3.89358 21.125 4.94196 21.125H21.058C22.1064 21.125 23.1099 20.6786 23.8484 19.8871C24.5866 19.0959 25 18.0245 25 16.9091V5.09091C25 3.97547 24.5866 2.90412 23.8484 2.11292C23.1099 1.32144 22.1064 0.875 21.058 0.875H4.94196C3.89358 0.875 2.89005 1.32144 2.15157 2.11292ZM3.53391 3.56912C3.90893 3.1672 4.41562 2.94318 4.94196 2.94318H21.058C21.5844 2.94318 22.0911 3.1672 22.4661 3.56912C22.8414 3.97134 23.0536 4.51861 23.0536 5.09091V6.32955H2.94643V5.09091C2.94643 4.51861 3.15863 3.97134 3.53391 3.56912ZM3.53391 18.4309C3.15863 18.0287 2.94643 17.4814 2.94643 16.9091V8.39773H23.0536V16.9091C23.0536 17.4814 22.8414 18.0287 22.4661 18.4309C22.0911 18.8328 21.5844 19.0568 21.058 19.0568H4.94196C4.41562 19.0568 3.90893 18.8328 3.53391 18.4309ZM19.7857 13.6023H17.2411C16.9801 13.6023 16.7316 13.7135 16.5499 13.9083C16.3684 14.1028 16.2679 14.3648 16.2679 14.6364C16.2679 14.9079 16.3684 15.17 16.5499 15.3645C16.7316 15.5592 16.9801 15.6705 17.2411 15.6705H19.7857C20.0467 15.6705 20.2951 15.5592 20.4769 15.3645C20.6584 15.17 20.7589 14.9079 20.7589 14.6364C20.7589 14.3648 20.6584 14.1028 20.4769 13.9083C20.2951 13.7135 20.0467 13.6023 19.7857 13.6023Z" fill="white" stroke="#464D57" stroke-width="0.25"/>
</svg>
