<svg width="84" height="86" viewBox="0 0 84 86" fill="none" xmlns="http://www.w3.org/2000/svg">
<path d="M64.3137 51.838H55.3403V86H84.0001V71.4203C84.0001 60.6098 75.1817 51.838 64.3137 51.838Z" fill="#464D57"/>
<path d="M27.0407 51.838H16.3795C7.33717 51.838 0 59.1364 0 68.1309V86H28.6597V51.838H27.0407Z" fill="#464D57"/>
<path d="M41.9916 66.726L28.6606 51.838V86H55.3397V51.838L41.9916 66.726Z" fill="#E6E8E8"/>
<path d="M41.9918 48.8061C44.6742 48.8061 46.8488 46.643 46.8488 43.9747C46.8488 41.3064 44.6742 39.1434 41.9918 39.1434C39.3093 39.1434 37.1348 41.3064 37.1348 43.9747C37.1348 46.643 39.3093 48.8061 41.9918 48.8061Z" fill="#F0B90B"/>
<path d="M23.1138 28.4867V21.3425C23.1138 10.669 31.8288 2 42.559 2C53.3064 2 62.0042 10.669 62.0042 21.3425V28.4867" stroke="#F0B90B" stroke-width="4" stroke-miterlimit="10"/>
<path d="M60.0396 28.6924V41.576C60.0396 42.9466 61.3485 44.0088 62.6747 43.6147C66.3089 42.5011 68.9613 39.126 68.9613 35.1342C68.9613 31.1423 66.3089 27.7844 62.6747 26.6536C61.3658 26.2425 60.0396 27.3218 60.0396 28.6924Z" fill="#F0B90B"/>
<path d="M16.5171 35.1337C16.5171 39.1256 19.1695 42.4836 22.8036 43.6143C24.1126 44.0255 25.4388 42.9461 25.4388 41.5755V28.692C25.4388 27.3214 24.1298 26.2591 22.8036 26.6532C19.1695 27.7668 16.5171 31.1419 16.5171 35.1337Z" fill="#F0B90B"/>
</svg>
