<svg width="28" height="28" viewBox="0 0 28 28" fill="none" xmlns="http://www.w3.org/2000/svg">
<path d="M14.5769 27.5708C22.3432 27.5708 28.6391 21.2749 28.6391 13.5085C28.6391 5.74216 22.3432 -0.553711 14.5769 -0.553711C6.81052 -0.553711 0.514648 5.74216 0.514648 13.5085C0.514648 21.2749 6.81052 27.5708 14.5769 27.5708Z" fill="#0ECB81"/>
<path d="M17.9393 15.2036C19.9133 12.1107 21.4505 7 21.4505 7L18.159 7.74618L16.9541 12.0088C16.8407 8.81315 14.6496 7.64335 14.6496 7.64335C12.8945 6.78819 11.3301 7.16435 10.2024 7.75233C8.80677 8.47829 7.79165 9.74389 7.30563 11.2011C6.61482 13.2744 6.69919 15.6008 6.7906 16.6537C6.82751 17.1477 6.93649 17.6337 7.11579 18.0977C8.3269 21.238 11.6816 21.0596 11.6816 21.0596C14.7551 20.9506 16.6227 17.3313 16.6227 17.3313L17.5034 19.9926C18.2926 21.3277 20.0407 20.8276 20.4002 20.7529C20.4635 20.7388 20.5197 20.7318 20.5839 20.7177L22.5491 20.418V19.5628C18.2707 19.6789 17.9393 15.2044 17.9393 15.2044V15.2036ZM13.7743 18.4203C13.5096 18.6915 13.1759 18.8854 12.8092 18.981C12.0121 19.1797 11.3995 18.8448 10.9767 18.4344C10.5045 17.9574 10.1811 17.3534 10.046 16.6959C9.27082 12.3102 10.3422 10.3881 11.0541 9.50484C11.248 9.25723 11.498 9.05925 11.7834 8.92722C12.0689 8.7952 12.3816 8.7329 12.6959 8.74547C15.4591 8.88961 16.0796 14.6709 16.0796 14.6709C15.2974 16.7232 14.2893 17.914 13.7743 18.4203Z" fill="white"/>
</svg>
