<svg width="35" height="26" viewBox="0 0 35 26" fill="none" xmlns="http://www.w3.org/2000/svg">
<path d="M23.4743 13.7134C23.4743 14.0169 23.2243 14.2848 22.9029 14.2848H18.9029V20.5705C18.9029 20.8741 18.635 21.142 18.3315 21.142H14.9029C14.5993 21.142 14.3315 20.8741 14.3315 20.5705V14.2848H10.3315C10.01 14.2848 9.76005 14.0348 9.76005 13.7134C9.76005 13.5527 9.83147 13.4098 9.93862 13.2848L16.2065 7.01695C16.3136 6.90981 16.4743 6.85624 16.6172 6.85624C16.7779 6.85624 16.9208 6.90981 17.0279 7.01695L23.3136 13.3027C23.4208 13.4098 23.4743 13.5705 23.4743 13.7134ZM34.9029 18.8562C34.9029 15.6777 32.7065 12.9098 29.5993 12.1777C30.0815 11.4455 30.3315 10.5884 30.3315 9.71338C30.3315 7.19552 28.2779 5.14195 25.76 5.14195C24.6708 5.14195 23.6172 5.53481 22.7958 6.24909C21.385 2.82052 18.0458 0.57052 14.3315 0.57052C9.2779 0.57052 5.18862 4.65981 5.18862 9.71338C5.18862 9.96338 5.20647 10.2134 5.22433 10.4812C2.42076 11.7848 0.617188 14.6062 0.617188 17.7134C0.617188 22.1241 4.20647 25.7134 8.61719 25.7134H28.0458C31.8315 25.7134 34.9029 22.642 34.9029 18.8562Z" fill="#B8B8B8"/>
</svg>
