<svg width="22" height="22" viewBox="0 0 22 22" fill="none" xmlns="http://www.w3.org/2000/svg">
<path fill-rule="evenodd" clip-rule="evenodd" d="M11 0C13.8477 0 16.1562 2.05203 16.1562 4.58333V7.33333H17.1875C18.3266 7.33333 19.25 8.15414 19.25 9.16667V20.1667C19.25 21.1792 18.3266 22 17.1875 22H4.8125C3.67341 22 2.75 21.1792 2.75 20.1667V9.16667C2.75 8.15414 3.67341 7.33333 4.8125 7.33333H5.84375V4.58333C5.84375 2.05203 8.15228 0 11 0ZM17.1875 9.16667H4.8125V20.1667H17.1875V9.16667ZM11 11.9167C12.1391 11.9167 13.0625 12.7375 13.0625 13.75C13.0625 14.4282 12.6482 15.0204 12.0324 15.3375L12.0312 18.3333H9.96875L9.96868 15.338C9.35223 15.021 8.9375 14.4286 8.9375 13.75C8.9375 12.7375 9.86091 11.9167 11 11.9167ZM11 1.83333C9.35239 1.83333 8.0056 2.97818 7.9115 4.42175L7.90625 4.58333V7.33333H14.0938V4.58333C14.0938 3.11879 12.8058 1.92164 11.1818 1.838L11 1.83333Z" fill="white"/>
</svg>
