<svg width="22" height="22" viewBox="0 0 22 22" fill="none" xmlns="http://www.w3.org/2000/svg">
<path fill-rule="evenodd" clip-rule="evenodd" d="M4.23958 5.5H2.75C1.23122 5.5 0 6.73122 0 8.25V19.25C0 20.7688 1.23122 22 2.75 22H17.4167C18.9354 22 20.1667 20.7688 20.1667 19.25L20.1667 17.4167C21.1792 17.4167 22 16.5959 22 15.5833V11.9167C22 10.9041 21.1792 10.0833 20.1667 10.0833L20.1667 8.25C20.1667 6.80963 19.0593 5.6279 17.6495 5.50972L15.5833 0L4.23958 5.5ZM8.44184 5.5H15.6878L14.5731 2.52729L8.44184 5.5ZM17.4167 7.33333H2.75C2.24374 7.33333 1.83333 7.74374 1.83333 8.25V19.25C1.83333 19.7563 2.24374 20.1667 2.75 20.1667H17.4167C17.9229 20.1667 18.3333 19.7563 18.3333 19.25V17.4167H14.6667C12.6416 17.4167 11 15.775 11 13.75C11 11.725 12.6416 10.0833 14.6667 10.0833H18.3333V8.25C18.3333 7.74374 17.9229 7.33333 17.4167 7.33333ZM12.8333 13.75C12.8333 12.7375 13.6541 11.9167 14.6667 11.9167H20.1667V15.5833H14.6667C13.6541 15.5833 12.8333 14.7625 12.8333 13.75ZM15.5833 13.75C15.5833 14.2563 15.1729 14.6667 14.6667 14.6667C14.1604 14.6667 13.75 14.2563 13.75 13.75C13.75 13.2437 14.1604 12.8333 14.6667 12.8333C15.1729 12.8333 15.5833 13.2437 15.5833 13.75Z" fill="white"/>
</svg>
