<svg width="20" height="21" viewBox="0 0 20 21" fill="none" xmlns="http://www.w3.org/2000/svg">
<path fill-rule="evenodd" clip-rule="evenodd" d="M11 0V2.07089C14.3923 2.55612 17 5.47353 17 9V10.3767C17 11.6798 17.3992 12.9517 18.1439 14.021L19.8206 16.4285C20.0335 16.7341 20.0588 17.1327 19.8864 17.4629C19.714 17.793 19.3724 18 19 18H13C13 19.6569 11.6569 21 10 21C8.34315 21 7 19.6569 7 18H1C0.627559 18 0.285974 17.793 0.113579 17.4629C-0.0588159 17.1327 -0.0334531 16.7341 0.179396 16.4285L1.85606 14.021C2.60077 12.9517 3 11.6798 3 10.3767V9C3 5.47353 5.60771 2.55612 9 2.07089V0H11ZM9 18C9 18.5523 9.44772 19 10 19C10.5523 19 11 18.5523 11 18H9ZM10 4C7.23858 4 5 6.23858 5 9V10.3767C5 12.0885 4.47556 13.7593 3.49727 15.164L2.91504 16H17.085L16.5027 15.164C15.5244 13.7593 15 12.0885 15 10.3767V9C15 6.23857 12.7614 4 10 4Z" fill="#E6E8E8"/>
</svg>
