<svg id="SvgjsSvg1001" width="256" height="256" xmlns="http://www.w3.org/2000/svg" version="1.1" xmlns:xlink="http://www.w3.org/1999/xlink" xmlns:svgjs="http://svgjs.com/svgjs"><defs id="SvgjsDefs1002"></defs><g id="SvgjsG1008"><svg xmlns="http://www.w3.org/2000/svg" viewBox="0 0 512 512" width="256" height="256"><defs><clipPath id="a"><path fill="none" d="M224.15 97.48s-58.22 31.68-63.36 71.92 30.82 105.33 36.82 133.6-1.71 60.8 26.54 70.22 85.63 1.61 95-22.75-1.71-40.62 7.71-65.45 45.38-75 31.68-122.25-61.6-82.42-134.39-65.29Z"></path></clipPath><clipPath id="b"><path fill="none" d="M214.72 405.41S112.16 273.14 108.17 273.55s-64 46.26-62 53.67 104.48 125.37 110.54 126 48.87-38.08 50.55-37.74 12.2 17.86 12.2 17.86l12.07-7.08Z"></path></clipPath><clipPath id="c"><path fill="none" d="M327.5 369.1S415 226.43 419 226.41s68.64 39 67.44 46.58S396.3 409 390.34 410.34s-52.72-32.52-54.36-32-10.18 19.08-10.18 19.08L313 391.7Z"></path></clipPath></defs><path fill="#62ba85" d="M415.61 466s-13.54-10.45-23.39-5.9 11.72 12.73 23.39 5.9zm1.06 0s13.53-10.45 23.39-5.9-11.73 12.73-23.39 5.9z" class="color62ba85 svgShape"></path><path d="M411 477a1 1 0 0 1-.84-1.54c10.51-16.21 6.87-28.69 6.83-28.82a1 1 0 1 1 1.91-.59c.17.54 4 13.45-7.06 30.5a1 1 0 0 1-.84.45Z" fill="#000000" class="color000 svgShape"></path><path fill="#ffc744" d="M401.4 456.66s-28-7-25.53-22.33 25.53 0 25.53 0-7.33-16.6 6.57-20.39 13.9 18.71 13.9 18.71 8.09-21.92 19.21-16.78 2 23.85-6.57 34-33.11 6.79-33.11 6.79Z" class="colorffc744 svgShape"></path><path d="M405.28 455.52c-.38 0-15.8-6.56-15.95-11.61 0-1.3.85-2.4 2.64-3.26 4.93-2.38 10.92-.36 15.51 2.66-1.49-4.82-1.38-10.45 3.36-12.28 3.83-1.48 7.63.92 10.13 6.43v.09c1.48-3.81 4.19-6.48 8.12-5.35 9.26 2.67 4.92 13.25-3.45 18.37a.37.37 0 0 1-.39-.64c7.66-4.69 12.22-14.53 3.63-17-3.78-1.09-6.24 1.91-7.49 5.64 1.34 3.49 1.74 7.33.19 8.15a.93.93 0 0 1-1.18-.17c-.95-1-.84-4.63.2-7.93-1.72-4.28-5.15-8.57-9.54-6.88-4.57 1.77-4.27 7.68-2.6 12.29 1.4 1 5.47 4.32 5 5.88-.38 1.19-3.2 1-5.59-5.37-4.19-2.95-10.48-5.68-15.6-3.21-1.5.73-2.25 1.59-2.22 2.57.12 3.81 11.11 9.16 15.34 10.9a.38.38 0 0 1-.11.72Zm3.79-10.12c1.17 2.62 2.63 4.4 3.58 4.31a.32.32 0 0 0 .13 0c.05-.09-.07-.8-1.52-2.31a20.51 20.51 0 0 0-2.19-2Zm12-5.62c-.87 3.41-.58 6.68.2 6.27s.85-3.13-.19-6.27Z" fill="#000000" class="color000 svgShape"></path><path fill="#62ba85" d="M59.19 252.67s14.87-11.48 25.71-6.48-12.9 13.99-25.71 6.48zm-1.19 0s-14.88-11.48-25.72-6.48S45.2 260.18 58 252.67z" class="color62ba85 svgShape"></path><path d="M64.28 264.7a1 1 0 0 1-.84-.46c-12.12-18.7-7.93-32.85-7.75-33.45a1 1 0 0 1 1.91.6c0 .13-4.06 13.9 7.52 31.76a1 1 0 0 1-.84 1.55Z" fill="#000000" class="color000 svgShape"></path><path fill="#ffc744" d="M74.8 242.39s30.85-7.68 28.07-24.54-28.07 0-28.07 0 8.06-18.25-7.22-22.42S52.29 216 52.29 216s-8.89-24.1-21.12-18.45-2.17 26.22 7.23 37.34 36.4 7.5 36.4 7.5Z" class="colorffc744 svgShape"></path><path d="M70.4 240.38c.17-.07 16.73-6.95 16.88-12 0-1.1-.79-2.06-2.45-2.86-5.7-2.75-12.74.39-17.21 3.53-1.36 3.58-3.54 6.67-5.27 6.51a.87.87 0 0 1-.81-.59c-.33-1.07 1.54-3.18 3.41-4.79.64-.56 1.33-1.1 2.07-1.64 1.83-5 2.2-11.61-2.88-13.57-4.85-1.87-8.64 2.87-10.54 7.59 1.15 3.63 1.27 7.6.24 8.7a1 1 0 0 1-1.26.18c-1.69-.89-1.25-5.1.23-8.92-1.38-4.14-4.11-7.44-8.29-6.24C35.06 219 40 229.85 48.51 235a.37.37 0 0 1-.39.64c-9.28-5.67-13.86-17.23-3.8-20.13 4.32-1.25 7.3 1.72 8.91 6 2.2-4.94 6.17-9.17 11.18-7.24 5.25 2 5.3 8.34 3.64 13.56 5-3.35 11.67-5.61 17.1-3 9 4.36-5.2 12.44-14.47 16.25a.37.37 0 1 1-.28-.7Zm-3.93-10.5c-.37.29-.72.57-1 .85-2.38 2.05-3.31 3.6-3.18 4 0 0 .12.06.17.06 1 .11 2.7-1.93 4.01-4.91Zm-13.3-6.17c-1.18 3.51-1.19 6.55-.24 7 .2.11.28.05.36 0 .65-.71.71-3.78-.12-7Z" fill="#000000" class="color000 svgShape"></path><path fill="#ffc744" d="M163.83 81a1.06 1.06 0 0 1-1.06-1v-9.5h-9a1.06 1.06 0 0 1-1.06-1.06v-2.67a1.05 1.05 0 0 1 1.06-1.06h9v-9.39a1.06 1.06 0 0 1 1.06-1.06h2.85a1.06 1.06 0 0 1 1.06 1.06v9.39h9a1.05 1.05 0 0 1 1.06 1.06v2.67a1.06 1.06 0 0 1-1.06 1.06h-9V80a1.06 1.06 0 0 1-1.06 1zm175.11 395.69a1.06 1.06 0 0 1-1.06-1.07v-9.48h-9a1.05 1.05 0 0 1-1.06-1.06v-2.66a1.06 1.06 0 0 1 1.06-1.07h9V452a1.06 1.06 0 0 1 1.06-1.06h2.85a1.07 1.07 0 0 1 1.06 1.06v9.39h9a1.07 1.07 0 0 1 1.06 1.07v2.66a1.06 1.06 0 0 1-1.06 1.06h-9v9.48a1.07 1.07 0 0 1-1.06 1.07zM137.44 267a1.07 1.07 0 0 1-1.06-1.06v-9.48h-9a1.06 1.06 0 0 1-1.06-1.07v-2.66a1.06 1.06 0 0 1 1.06-1.07h9v-9.39a1.07 1.07 0 0 1 1.06-1.06h2.85a1.06 1.06 0 0 1 1.06 1.06v9.39h9a1.06 1.06 0 0 1 1.06 1.07v2.66a1.06 1.06 0 0 1-1.06 1.07h-9v9.48a1.06 1.06 0 0 1-1.06 1.06zm218.25-158.77a.87.87 0 0 1-.87-.87v-7.73h-7.33a.86.86 0 0 1-.87-.86v-2.18a.87.87 0 0 1 .87-.86h7.33v-7.66a.87.87 0 0 1 .87-.87H358a.86.86 0 0 1 .86.87v7.66h7.34a.87.87 0 0 1 .86.86v2.18a.86.86 0 0 1-.86.86h-7.34v7.73a.86.86 0 0 1-.86.87zm10.22 162.04a.87.87 0 0 1-.87-.87v-7.73h-7.33a.87.87 0 0 1-.86-.87v-2.17a.87.87 0 0 1 .86-.87H365v-7.65a.87.87 0 0 1 .87-.87h2.32a.87.87 0 0 1 .87.87v7.65h7.33a.86.86 0 0 1 .86.87v2.17a.86.86 0 0 1-.86.87h-7.29v7.73a.87.87 0 0 1-.87.87zM86.5 450.65a.86.86 0 0 1-.87-.86v-7.73H78.3a.86.86 0 0 1-.86-.87V439a.86.86 0 0 1 .86-.87h7.33v-7.66a.87.87 0 0 1 .87-.86h2.32a.86.86 0 0 1 .86.86v7.66H97a.87.87 0 0 1 .86.87v2.17a.87.87 0 0 1-.86.87h-7.32v7.73a.85.85 0 0 1-.86.86z" class="colorffc744 svgShape"></path><path fill="#c6842c" d="M178.2 148.57a41.37 41.37 0 0 1-17.91-7.42c-8.35-6.28-42-24.55-66.58-21.7s-37.71.85-34.82 14.41 31.4 42.11 49.67 46.68 28.82-10.57 40.53-10.85 24.54 0 29.11-5.14 0-15.98 0-15.98zm156.91 0a41.39 41.39 0 0 0 17.89-7.42c8.34-6.28 42-24.55 66.57-21.7s37.68.85 34.82 14.41S423 176 404.76 180.54s-28.83-10.54-40.53-10.85-24.55 0-29.12-5.14 0-15.98 0-15.98z" class="colorc6842c svgShape"></path><g clip-path="url(#a)"><path fill="#f2f4f3" d="M224.15 97.48s-58.22 31.68-63.36 71.92 30.82 105.33 36.82 133.6-1.71 60.8 26.54 70.22 85.63 1.61 95-22.75-1.71-40.62 7.71-65.45 45.38-75 31.68-122.25-61.6-82.42-134.39-65.29Z" class="colorf2f4f3 svgShape"></path><path fill="#c6842c" d="M210.17 377.07s-8-25.85 5.13-43 28-21.12 31.4-37.1-36.78-48.52-38.94-83.92-.37-102.75 19.57-128.44l-78.24 34.52S109.7 247.32 109.7 246.47s24 91 24 91zm102.41 0s8-25.85-5.13-43-28-21.12-31.4-37.1 36.79-48.52 38.94-83.92.37-102.75-19.57-128.44l78.24 34.52s39.39 128.17 39.39 127.32-24 91-24 91z" class="colorc6842c svgShape"></path></g><path d="M200.18 218.64a7.28 7.28 0 1 1-7.28-7.28 7.28 7.28 0 0 1 7.28 7.28zm140.18 0a7.28 7.28 0 1 1-7.28-7.28 7.28 7.28 0 0 1 7.28 7.28z" fill="#000000" class="color000 svgShape"></path><path fill="#ffe0a1" d="M256.91 331.53s-14.78-4.14-25.48 0-16.41 10-15.84 20 3.54 17.13 17.25 20.84 38.69 2 48.11-1.71 22.84-11.56 24.26-20.84-8.56-20-14.27-22.69-20.83 6.22-34.03 4.4Z" class="colorffe0a1 svgShape"></path><path d="M250.7 352.65s-13.13-10.56-17.13-6.28 9.42 18.84 17.13 20.55 8.84-8.6 0-14.27zm25.75 0s13.13-10.56 17.12-6.28-9.41 18.84-17.12 20.55-8.85-8.6 0-14.27z" fill="#000000" class="color000 svgShape"></path><path fill="#ffe0a1" d="M370.36 160.84s13.7.43 25.9-6.85 24.62-12 36.4-16.27 15.19-6.21 15.19-3.42-15 21.19-29.32 31-16.41 12.88-24.53 11.81-33.91-13.91-23.64-16.27zm-228.59 0s-13.7.43-25.9-6.85-24.62-12-36.39-16.27-15.2-6.21-15.2-3.42 15 21.19 29.33 31 16.41 12.84 24.58 11.77 33.86-13.87 23.58-16.23z" class="colorffe0a1 svgShape"></path><path d="M199.41 203.16a7.92 7.92 0 0 0-5.71-3c-6.09-.4-12.73 5.6-12.8 5.66a1 1 0 0 1-1.35-1.47c.3-.28 7.3-6.64 14.27-6.19a9.89 9.89 0 0 1 7.12 3.71c7.44 8.82 12.77 29.81 22 26a1 1 0 0 1 1.31.54 1 1 0 0 1-.54 1.3c-11.38 4.72-16.78-17.64-24.3-26.55zm113.95 21.56a1 1 0 0 1-1.07-1.31 1 1 0 0 1 1-.7c.32-.08 2.83-1 8.69-11.83 5-9.15 9.62-16.83 16-18.11 3.36-.67 6.83.49 10.6 3.54a1 1 0 0 1 .14 1.41 1 1 0 0 1-1.4.15c-3.28-2.66-6.21-3.68-8.95-3.14-5.56 1.11-10.11 8.73-14.66 17.11-5.84 10.89-8.9 12.88-10.35 12.88zm.18-2zm0 0zm0 0zm-.23 0zm-56.67 102.92c-9.7-2.76-23.46 0-23.6 0a1 1 0 0 1-1.18-.78 1 1 0 0 1 .78-1.18c.59-.11 14.37-2.86 24.54 0 9.64 2.74 13.63.42 22.77-3.93 9.62-4.56 16.25 1 16.53 1.29a1 1 0 1 1-1.31 1.51c-.24-.21-6-5-14.36-1-9.48 4.55-13.92 7-24.17 4.09zM368 141.65a.5.5 0 0 1-.27-.92 86.14 86.14 0 0 1 9.74-5.29.51.51 0 0 1 .67.24.5.5 0 0 1-.24.67c-7.66 3.65-9.44 5.3-9.9 5.3zm19.86-9.44a.5.5 0 0 1-.16-1 97.88 97.88 0 0 1 10.61-3.11.5.5 0 0 1 .22 1c-6.93 1.61-10.29 3.11-10.7 3.11zm21.4-4.92a.5.5 0 0 1-.05-1 75.1 75.1 0 0 1 11.07-.31.5.5 0 0 1-.05 1 70.9 70.9 0 0 0-11 .31zm-96.01 192.22a.5.5 0 0 1-.49-.39 64.87 64.87 0 0 1-1.23-11 .5.5 0 0 1 1 0 63.9 63.9 0 0 0 1.21 10.83.5.5 0 0 1-.49.56zm-.65-21.9a.49.49 0 0 1-.49-.57 47.6 47.6 0 0 1 2.78-10.74.5.5 0 0 1 .93.37 46.1 46.1 0 0 0-2.72 10.51.51.51 0 0 1-.5.43zm8.11-20.2a.5.5 0 0 1-.42-.77c2-3.13 4.08-6.24 6-9.22a.49.49 0 0 1 .69-.15.5.5 0 0 1 .15.69c-1.93 3-4 6.1-6 9.22a.51.51 0 0 1-.42.23zm12-18.47a.5.5 0 0 1-.42-.77c2.51-3.9 4.58-7.15 5.94-9.27a.5.5 0 0 1 .84.54c-1.35 2.12-3.43 5.37-5.94 9.27a.51.51 0 0 1-.43.23zm-159.93-98.88a.49.49 0 0 1-.48-.64 77.28 77.28 0 0 1 4.11-10.31.5.5 0 0 1 .66-.24.5.5 0 0 1 .24.67 77.58 77.58 0 0 0-4.05 10.16.51.51 0 0 1-.48.36zm8.95-20.65a77.54 77.54 0 0 1 6.54-8.93.5.5 0 0 1 .76.64 77.32 77.32 0 0 0-6.45 8.82.5.5 0 0 1-.85-.53zm14.71-15.86a.5.5 0 0 1-.32-.88 56.3 56.3 0 0 1 5.37-3.94.5.5 0 1 1 .54.84 56 56 0 0 0-5.27 3.87.48.48 0 0 1-.32.11zm-21.38 76.59a1 1 0 0 1-.89-1.46c.18-.35 4.53-8.58 13.1-8.58a1 1 0 0 1 0 2c-7.36 0-11.28 7.42-11.32 7.5a1 1 0 0 1-.89.54zm174.32-12.4a1 1 0 0 1-.74-.32c-4-4.42-12-2.51-12.07-2.49a1 1 0 1 1-.49-1.94c.37-.09 9.2-2.22 14 3.08a1 1 0 0 1-.7 1.67z" fill="#000000" class="color000 svgShape"></path><g clip-path="url(#b)"><path fill="#dddddd" d="M214.72 405.41S112.16 273.14 108.17 273.55s-64 46.26-62 53.67 104.48 125.37 110.54 126 48.87-38.08 50.55-37.74 12.2 17.86 12.2 17.86l12.07-7.08Z" class="colorddd svgShape"></path><path fill="#f2f4f3" d="M69.8 289.47s0 22.31 10.11 23.79 9.61 9.58 10.62 16.66 12.13 8.59 17.19 14.15-1 13.41 5.56 19.34S131 370.36 130.47 379s9.6 5.56 17.18 10.62 1.52 18.19 7.59 21.73 13.64 3.54 14.66 10.11 14.15 14.66 26.79 13.15l-50.05 31.29L35.43 331.43l10.73-26.79Z" class="colorf2f4f3 svgShape"></path></g><path fill="#dbc393" d="M222.15 414.62c-.27.17-11.31 5.27-12.49 9.65s34.38 58.81 41.12 59.49 25.92-17.87 23.41-23.93-41.69-51.75-52.04-45.21Z" class="colordbc393 svgShape"></path><path d="M259.57 454.14c-.56 0-.09-.24-7.68-8.4a.49.49 0 0 1 0-.7.5.5 0 0 1 .71 0c2.87 3.09 5.34 5.87 7.33 8.26a.5.5 0 0 1-.36.84zM244.63 438a.51.51 0 0 1-.36-.15c-4.4-4.47-7.79-7.74-7.82-7.77a.5.5 0 0 1 0-.71.5.5 0 0 1 .71 0s3.44 3.31 7.84 7.79a.5.5 0 0 1-.37.84zm3.57 44.47c.08-.21 7.81-21.11 25-22a.5.5 0 0 1 .53.47.51.51 0 0 1-.48.53c-8.59.42-14.66 6.17-18.25 10.91a44.94 44.94 0 0 0-5.82 10.39.5.5 0 0 1-.98-.3z" fill="#000000" class="color000 svgShape"></path><path fill="#ffffff" d="M115 377.42a.5.5 0 0 1-.5-.5v-34.53a.5.5 0 0 1 .5-.5.5.5 0 0 1 .5.5v34.53a.5.5 0 0 1-.5.5zm15.8 28.99a.51.51 0 0 1-.5-.5v-74.48a.5.5 0 0 1 .5-.5.5.5 0 0 1 .5.5v74.48a.5.5 0 0 1-.5.5zm14.83-6.41a.5.5 0 0 1-.5-.5v-28a.5.5 0 1 1 1 0v28a.5.5 0 0 1-.5.5z" class="colorfff svgShape"></path><path d="M138.87 318.2c-.33 0-.32-.1-1.81-2a.5.5 0 0 1 .79-.62l1.41 1.76a.51.51 0 0 1-.39.86Zm-8.28-10.37c-.35 0 .22.58-7.26-8.78a.5.5 0 0 1 .79-.62L131 307a.5.5 0 0 1-.41.83Zm-13.73-17.18c-.35 0 .21.57-7.26-8.79a.5.5 0 0 1 .08-.7.49.49 0 0 1 .7.08l6.87 8.59a.51.51 0 0 1-.39.82Z" fill="#000000" class="color000 svgShape"></path><g clip-path="url(#c)"><path fill="#dddddd" d="M327.5 369.1S415 226.43 419 226.41s68.64 39 67.44 46.58S396.3 409 390.34 410.34s-52.72-32.52-54.36-32-10.18 19.08-10.18 19.08L313 391.7Z" class="colorddd svgShape"></path><path fill="#f2f4f3" d="M458.9 238.05s2.44 22.17-7.45 24.75-8.5 10.56-8.74 17.71-11.12 9.86-15.54 15.94 2.47 13.22-3.41 19.83-16.83 8.84-15.39 17.33-8.94 6.57-15.93 12.42.48 18.26-5.17 22.44-13.18 5-13.46 11.65-12.47 16.11-25.2 16l53.16 25.69L497.65 276l-13.59-25.46Z" class="colorf2f4f3 svgShape"></path></g><path fill="#dbc393" d="M321.12 379.07c.29.14 11.82 4 13.47 8.23s-27.75 62.21-34.38 63.61-27.72-14.91-25.88-21.23 35.79-55.98 46.79-50.61Z" class="colordbc393 svgShape"></path><path d="M288.18 422.44a.5.5 0 0 1-.41-.78c1.72-2.59 3.86-5.63 6.38-9a.5.5 0 0 1 .81.6c-6.72 9.01-6.19 9.18-6.78 9.18zm13.09-17.73a.5.5 0 0 1-.39-.81c3.89-4.93 6.91-8.56 6.94-8.6a.51.51 0 0 1 .71-.06.49.49 0 0 1 .06.7c-7.59 9.22-6.89 8.77-7.32 8.77zm.46 45.08a44.57 44.57 0 0 0-6.92-9.69c-4.08-4.32-10.74-9.37-19.33-8.85a.5.5 0 0 1-.06-1c17.16-1 27.11 18.9 27.21 19.1a.5.5 0 0 1-.9.44z" fill="#000000" class="color000 svgShape"></path><path fill="#ffffff" d="M423.55 330.4a.5.5 0 0 1-.49-.44l-3.77-34.33a.5.5 0 0 1 1-.11l3.77 34.33a.5.5 0 0 1-.51.55zM411 360.94a.49.49 0 0 1-.49-.45l-8.13-74a.5.5 0 0 1 .44-.55.5.5 0 0 1 .55.44l8.13 74a.5.5 0 0 1-.5.56zm-15.47-4.75a.5.5 0 0 1-.49-.44L392 327.87a.5.5 0 1 1 1-.11l3 27.88a.5.5 0 0 1-.47.55z" class="colorfff svgShape"></path><path d="m392.91 273.37 1.21-1.91a.49.49 0 0 1 .69-.16.5.5 0 0 1 .15.69l-1.21 1.91a.5.5 0 0 1-.84-.53Zm7.1-11.21 5.88-9.29a.5.5 0 0 1 .69-.15.49.49 0 0 1 .16.69l-5.89 9.29a.5.5 0 0 1-.85-.54Zm11.77-18.58 5.89-9.29a.49.49 0 0 1 .69-.16.5.5 0 0 1 .15.69l-5.88 9.29a.5.5 0 0 1-.85-.53Z" fill="#000000" class="color000 svgShape"></path><path fill="#ffc744" d="M273.84 69.15A18.19 18.19 0 1 1 292 51a18.21 18.21 0 0 1-18.16 18.15zm0-34.38A16.19 16.19 0 1 0 290 51a16.21 16.21 0 0 0-16.16-16.23zm171.88 174.88a12.77 12.77 0 1 1 12.77-12.76 12.77 12.77 0 0 1-12.77 12.76zm0-23.53a10.77 10.77 0 1 0 10.77 10.77 10.78 10.78 0 0 0-10.77-10.77zM255.65 413.73a14.63 14.63 0 1 1 14.63-14.62 14.64 14.64 0 0 1-14.63 14.62zm0-27.25a12.63 12.63 0 1 0 12.63 12.63 12.64 12.64 0 0 0-12.63-12.63zM129.56 223.79a15.6 15.6 0 1 1 15.6-15.6 15.62 15.62 0 0 1-15.6 15.6zm0-29.2a13.6 13.6 0 1 0 13.6 13.6 13.61 13.61 0 0 0-13.6-13.6zM98.83 99.57A12.17 12.17 0 1 1 111 87.4a12.18 12.18 0 0 1-12.17 12.17zm0-22.33A10.17 10.17 0 1 0 109 87.4a10.18 10.18 0 0 0-10.17-10.16z" class="colorffc744 svgShape"></path></svg></g></svg>