<svg width="22" height="22" viewBox="0 0 22 22" fill="none" xmlns="http://www.w3.org/2000/svg">
<path fill-rule="evenodd" clip-rule="evenodd" d="M3.66675 2.75C3.66675 1.23122 5.06215 0 6.78348 0H15.0948C16.8161 0 18.2115 1.23122 18.2115 2.75V13.7108C18.9218 14.4005 19.3215 15.3331 19.2397 16.3311L19.2357 16.3802L18.0792 22H8.36116L4.33004 17.5859C3.91851 17.1353 3.68958 16.5923 3.66837 16.0417H3.66675V15.9576V15.9574V2.75ZM16.1337 2.75V12.6382C16.0059 12.6124 15.8757 12.5918 15.7432 12.5767L14.0556 12.3827V9.16667C14.0556 7.64788 12.6602 6.41667 10.9389 6.41667C9.21758 6.41667 7.82217 7.64788 7.82217 9.16667V13.674C7.22371 13.4592 6.46961 13.3678 5.74457 13.5465V2.75C5.74457 2.24374 6.2097 1.83333 6.78348 1.83333L7.82224 1.83333V3.66667H14.0557V1.83333L15.0948 1.83333C15.6685 1.83333 16.1337 2.24374 16.1337 2.75ZM5.74457 15.9447V15.989C5.7506 16.1401 5.81828 16.2936 5.94797 16.4356L9.35531 20.1667H16.3446L17.1702 16.1549C17.2161 15.2816 16.4894 14.5098 15.4783 14.3951L11.9778 13.9925V9.16667C11.9778 8.66041 11.5127 8.25 10.9389 8.25C10.3651 8.25 9.89999 8.66041 9.89999 9.16667V17.3193L7.12884 15.408C6.96121 15.3302 6.74516 15.2801 6.53491 15.2849C6.31764 15.29 6.13963 15.3508 6.00086 15.4694C5.837 15.6094 5.75139 15.7746 5.74457 15.9447Z" fill="#1E2329"/>
</svg>
