<svg width="22" height="22" viewBox="0 0 22 22" fill="none" xmlns="http://www.w3.org/2000/svg">
<path fill-rule="evenodd" clip-rule="evenodd" d="M12.8333 0L13.9288 3.28498C14.0827 3.34346 14.2345 3.40641 14.3839 3.47368L17.4818 1.92546L20.0745 4.51819L18.5263 7.61611C18.5936 7.76551 18.6565 7.91726 18.715 8.07123L22 9.16667V12.8333L18.7147 13.9297C18.6562 14.0837 18.5932 14.2354 18.5259 14.3848L20.0745 17.4818L17.4818 20.0745L14.3848 18.5259C14.2354 18.5932 14.0837 18.6562 13.9297 18.7147L12.8333 22H9.16667L8.07123 18.715C7.91726 18.6565 7.76551 18.5936 7.61611 18.5263L4.51819 20.0745L1.92546 17.4818L3.47368 14.3839C3.40641 14.2345 3.34346 14.0827 3.28498 13.9288L0 12.8333V9.16667L3.28463 8.07214C3.34321 7.91787 3.40628 7.7658 3.47368 7.61611L1.92546 4.51819L4.51819 1.92546L7.61611 3.47368C7.7658 3.40628 7.91787 3.34321 8.07214 3.28463L9.16667 0H12.8333ZM11.5115 1.83333H10.4876L9.53637 4.68971L8.72291 4.99857L8.54476 5.06931L8.36887 5.14535L7.57517 5.50276L4.88033 4.15525L4.15525 4.88033L5.50276 7.57517L5.14535 8.36887L5.06931 8.54476L4.99857 8.72291L4.68971 9.53637L1.83333 10.4876V11.5115L4.69002 12.4647L4.99884 13.2778L5.06945 13.4556L5.14535 13.6311L5.50276 14.4248L4.15525 17.1187L4.88033 17.8438L7.57517 16.4972L8.36887 16.8547L8.54441 16.9305L8.7222 17.0012L9.53527 17.31L10.4876 20.1667H11.5115L12.4658 17.3097L13.2785 17.0009L13.4563 16.9303L13.6318 16.8543L14.4258 16.4967L17.1197 17.8429L17.8429 17.1197L16.4967 14.4258L16.8543 13.6318L16.9303 13.4563L17.0009 13.2785L17.3097 12.4658L20.1667 11.5115V10.4876L17.31 9.53527L17.0012 8.7222L16.9305 8.54441L16.8547 8.36887L16.4972 7.57517L17.8438 4.88033L17.1187 4.15525L14.4248 5.50276L13.6311 5.14535L13.4556 5.06945L13.2778 4.99884L12.4647 4.69002L11.5115 1.83333ZM11 7.33333C13.025 7.33333 14.6667 8.97496 14.6667 11C14.6667 13.025 13.025 14.6667 11 14.6667C8.97496 14.6667 7.33333 13.025 7.33333 11C7.33333 8.97496 8.97496 7.33333 11 7.33333ZM11 9.16667C9.98748 9.16667 9.16667 9.98748 9.16667 11C9.16667 12.0125 9.98748 12.8333 11 12.8333C12.0125 12.8333 12.8333 12.0125 12.8333 11C12.8333 9.98748 12.0125 9.16667 11 9.16667Z" fill="#1E2329"/>
</svg>
