<svg width="22" height="22" viewBox="0 0 22 22" fill="none" xmlns="http://www.w3.org/2000/svg">
<path fill-rule="evenodd" clip-rule="evenodd" d="M8.25 4.125C8.25 5.39065 7.22399 6.41667 5.95833 6.41667C4.69268 6.41667 3.66667 5.39065 3.66667 4.125C3.66667 2.85935 4.69268 1.83333 5.95833 1.83333C7.22399 1.83333 8.25 2.85935 8.25 4.125ZM10.0833 4.125C10.0833 6.40317 8.23651 8.25 5.95833 8.25C3.68016 8.25 1.83333 6.40317 1.83333 4.125C1.83333 1.84683 3.68016 0 5.95833 0C8.23651 0 10.0833 1.84683 10.0833 4.125ZM19.25 11.4583C19.25 12.2177 18.6344 12.8333 17.875 12.8333C17.1156 12.8333 16.5 12.2177 16.5 11.4583C16.5 10.6989 17.1156 10.0833 17.875 10.0833C18.6344 10.0833 19.25 10.6989 19.25 11.4583ZM21.0833 11.4583C21.0833 13.2302 19.6469 14.6667 17.875 14.6667C16.1031 14.6667 14.6667 13.2302 14.6667 11.4583C14.6667 9.68642 16.1031 8.25 17.875 8.25C19.6469 8.25 21.0833 9.68642 21.0833 11.4583ZM0 15.125C0 11.8343 2.66764 9.16667 5.95833 9.16667C9.24903 9.16667 11.9167 11.8343 11.9167 15.125V22H10.0833V15.125C10.0833 12.8468 8.23651 11 5.95833 11C3.68016 11 1.83333 12.8468 1.83333 15.125V22H0V15.125ZM17.875 15.5833C15.5968 15.5833 13.75 17.4302 13.75 19.7083V22H15.5833V19.7083C15.5833 18.4427 16.6093 17.4167 17.875 17.4167C19.1407 17.4167 20.1667 18.4427 20.1667 19.7083V22H22V19.7083C22 17.4302 20.1532 15.5833 17.875 15.5833Z" fill="#1E2329"/>
</svg>
