<svg width="28" height="28" viewBox="0 0 28 28" fill="none" xmlns="http://www.w3.org/2000/svg">
<path d="M14.0334 27.5708C21.7998 27.5708 28.0957 21.2749 28.0957 13.5085C28.0957 5.74216 21.7998 -0.553711 14.0334 -0.553711C6.26707 -0.553711 -0.0288086 5.74216 -0.0288086 13.5085C-0.0288086 21.2749 6.26707 27.5708 14.0334 27.5708Z" fill="#F35D71"/>
<path d="M8.54221 6.05957H9.33672C10.5786 6.17734 11.7273 6.78114 12.5772 7.65036C14.3429 9.44242 15.3132 11.971 17.5605 13.3043C19.1847 14.2684 21.4566 13.48 22.2546 11.8506C22.6607 11.8435 23.0694 11.8435 23.4754 11.8453C22.9164 13.5002 21.2879 14.6894 19.5072 14.8485H18.8516C17.7556 14.7606 16.6895 14.3528 15.8607 13.6479C14.6566 12.6609 13.8832 11.3065 12.9472 10.1007C12.1421 9.03461 11.3213 7.83581 9.98886 7.35154C8.3427 6.75477 6.33268 7.68815 5.7324 9.27367C5.20506 10.5797 5.63396 12.1986 6.81343 13.0353C7.69759 13.6962 8.92892 13.9432 9.99061 13.5583C11.1701 13.1469 12.0455 12.2118 12.7169 11.2204C12.9815 11.5869 13.239 11.9587 13.4939 12.3331C12.4497 13.6048 11.0013 14.6973 9.27871 14.8485H8.57297C6.40211 14.7026 4.51513 12.9184 4.36572 10.8108V10.1209C4.50634 8.01774 6.36959 6.2125 8.54221 6.05957ZM18.8076 6.05957H19.4668C21.6579 6.19756 23.5211 8.01774 23.7013 10.1253V11.2063C21.8934 11.2222 20.0838 11.2116 18.2759 11.2134C18.2777 10.897 18.2777 10.5832 18.2759 10.2668C19.705 10.2633 21.1323 10.273 22.5587 10.2633C22.4577 9.70432 22.3267 9.13217 21.9839 8.65845C21.149 7.42449 19.3833 6.92 17.9718 7.45437C16.8468 7.85866 15.9996 8.74282 15.3466 9.68675C15.0952 9.33783 14.8456 8.98363 14.6039 8.62681C15.6348 7.3366 17.0736 6.22041 18.8076 6.05957Z" fill="white"/>
</svg>
