<svg width="22" height="22" viewBox="0 0 22 22" fill="none" xmlns="http://www.w3.org/2000/svg">
<path fill-rule="evenodd" clip-rule="evenodd" d="M11 0C11.5063 0 11.9167 0.410406 11.9167 0.916667V2.75C11.9167 3.25626 11.5063 3.66667 11 3.66667C10.4937 3.66667 10.0833 3.25626 10.0833 2.75V0.916668C10.0833 0.410407 10.4937 0 11 0Z" fill="#464D57"/>
<path fill-rule="evenodd" clip-rule="evenodd" d="M11 18.3333C11.5063 18.3333 11.9167 18.7437 11.9167 19.25V21.0833C11.9167 21.5896 11.5063 22 11 22C10.4937 22 10.0833 21.5896 10.0833 21.0833V19.25C10.0833 18.7437 10.4937 18.3333 11 18.3333Z" fill="#464D57"/>
<path fill-rule="evenodd" clip-rule="evenodd" d="M18.3333 11C18.3333 10.4937 18.7437 10.0833 19.25 10.0833H21.0833C21.5896 10.0833 22 10.4937 22 11C22 11.5063 21.5896 11.9167 21.0833 11.9167H19.25C18.7437 11.9167 18.3333 11.5063 18.3333 11Z" fill="#464D57"/>
<path fill-rule="evenodd" clip-rule="evenodd" d="M0 11C6.0371e-09 10.4937 0.410406 10.0833 0.916667 10.0833H2.75C3.25626 10.0833 3.66667 10.4937 3.66667 11C3.66667 11.5063 3.25626 11.9167 2.75 11.9167H0.916668C0.410407 11.9167 -6.0371e-09 11.5063 0 11Z" fill="#464D57"/>
<path fill-rule="evenodd" clip-rule="evenodd" d="M3.22183 3.22183C3.57981 2.86385 4.16021 2.86385 4.51819 3.22183L5.81455 4.51819C6.17253 4.87617 6.17253 5.45657 5.81455 5.81455C5.45657 6.17253 4.87617 6.17253 4.51819 5.81455L3.22183 4.51819C2.86385 4.16021 2.86384 3.57981 3.22183 3.22183Z" fill="#464D57"/>
<path fill-rule="evenodd" clip-rule="evenodd" d="M16.1854 16.1854C16.5434 15.8275 17.1238 15.8275 17.4818 16.1854L18.7782 17.4818C19.1362 17.8398 19.1362 18.4202 18.7782 18.7782C18.4202 19.1362 17.8398 19.1362 17.4818 18.7782L16.1854 17.4818C15.8275 17.1238 15.8275 16.5434 16.1854 16.1854Z" fill="#464D57"/>
<path fill-rule="evenodd" clip-rule="evenodd" d="M16.1854 5.81455C15.8275 5.45657 15.8275 4.87617 16.1854 4.51819L17.4818 3.22182C17.8398 2.86384 18.4202 2.86384 18.7782 3.22182C19.1362 3.57981 19.1362 4.16021 18.7782 4.51819L17.4818 5.81455C17.1238 6.17253 16.5434 6.17253 16.1854 5.81455Z" fill="#464D57"/>
<path fill-rule="evenodd" clip-rule="evenodd" d="M3.22183 18.7782C2.86385 18.4202 2.86385 17.8398 3.22183 17.4818L4.51819 16.1854C4.87617 15.8275 5.45657 15.8275 5.81455 16.1854C6.17253 16.5434 6.17253 17.1238 5.81455 17.4818L4.51819 18.7782C4.16021 19.1362 3.57981 19.1362 3.22183 18.7782Z" fill="#464D57"/>
<path fill-rule="evenodd" clip-rule="evenodd" d="M11 15C13.2091 15 15 13.2091 15 11C15 8.79086 13.2091 7 11 7C8.79086 7 7 8.79086 7 11C7 13.2091 8.79086 15 11 15ZM11 17C14.3137 17 17 14.3137 17 11C17 7.68629 14.3137 5 11 5C7.68629 5 5 7.68629 5 11C5 14.3137 7.68629 17 11 17Z" fill="#464D57"/>
</svg>
