<svg width="28" height="28" viewBox="0 0 28 28" fill="none" xmlns="http://www.w3.org/2000/svg">
<rect width="28" height="28" rx="14" fill="#02E8F4"/>
<path d="M20.3553 10.741C20.3655 10.8831 20.3655 11.0253 20.3655 11.1674C20.3655 15.5024 17.066 20.4973 11.0355 20.4973C9.17766 20.4973 7.45178 19.9593 6 19.0253C6.26397 19.0557 6.51775 19.0659 6.79188 19.0659C8.32484 19.0659 9.73603 18.5481 10.8629 17.6649C9.42131 17.6344 8.21319 16.6903 7.79694 15.3908C8 15.4212 8.20303 15.4415 8.41625 15.4415C8.71066 15.4415 9.00509 15.4009 9.27919 15.3298C7.77666 15.0253 6.64972 13.7055 6.64972 12.1116V12.071C7.08625 12.3146 7.59391 12.4669 8.13194 12.4872C7.24869 11.8983 6.67003 10.8933 6.67003 9.75622C6.67003 9.1471 6.83244 8.58872 7.11672 8.10141C8.73094 10.0913 11.1573 11.3907 13.8781 11.5329C13.8274 11.2892 13.7969 11.0354 13.7969 10.7816C13.7969 8.9745 15.2588 7.50244 17.0761 7.50244C18.0203 7.50244 18.873 7.89838 19.472 8.53797C20.2131 8.39585 20.9238 8.12172 21.5533 7.7461C21.3096 8.50754 20.7918 9.14713 20.1116 9.55319C20.7715 9.48216 21.4111 9.29938 21.9999 9.0456C21.5533 9.69532 20.9949 10.274 20.3553 10.741Z" fill="white"/>
</svg>
