<svg width="28" height="28" viewBox="0 0 28 28" fill="none" xmlns="http://www.w3.org/2000/svg">
<path d="M13.8528 27.5708C21.6191 27.5708 27.915 21.2749 27.915 13.5085C27.915 5.74216 21.6191 -0.553711 13.8528 -0.553711C6.0864 -0.553711 -0.209473 5.74216 -0.209473 13.5085C-0.209473 21.2749 6.0864 27.5708 13.8528 27.5708Z" fill="#B2D7E4"/>
<path fill-rule="evenodd" clip-rule="evenodd" d="M9.97437 7.00656L13.8529 11.0547L17.6365 7.00656L20.0051 9.43054L16.1415 13.5086L20.0051 17.5541L17.6365 20.0089L13.8529 15.9624L9.97437 20.0089L7.70068 17.6218L11.5326 13.4857L7.70068 9.43054L9.97437 7.00744V7.00656ZM10.2864 6.6761L13.8371 2.96191L17.3878 6.6761L15.5193 8.66679L13.8371 6.80881L12.1549 8.66679L10.2864 6.6761ZM10.2864 20.3411L12.1549 18.3504L13.8371 20.2084L15.5193 18.3504L17.3878 20.3411L13.8371 24.0553L10.2864 20.3411Z" fill="white"/>
</svg>
