<svg width="28" height="28" viewBox="0 0 28 28" fill="none" xmlns="http://www.w3.org/2000/svg">
<rect width="28" height="28" rx="14" fill="#D82122"/>
<path d="M21.2682 10.3357C21.0937 9.67878 20.5797 9.16139 19.927 8.9858C18.7439 8.66675 14 8.66675 14 8.66675C14 8.66675 9.2561 8.66675 8.07302 8.9858C7.42032 9.16141 6.90627 9.67878 6.73179 10.3357C6.41479 11.5265 6.41479 14.0109 6.41479 14.0109C6.41479 14.0109 6.41479 16.4952 6.73179 17.686C6.90627 18.3429 7.42032 18.8388 8.07302 19.0144C9.2561 19.3334 14 19.3334 14 19.3334C14 19.3334 18.7439 19.3334 19.927 19.0144C20.5797 18.8388 21.0937 18.3429 21.2682 17.686C21.5852 16.4952 21.5852 14.0109 21.5852 14.0109C21.5852 14.0109 21.5852 11.5265 21.2682 10.3357ZM12.4485 16.2665V11.7552L16.4134 14.0109L12.4485 16.2665Z" fill="white"/>
</svg>
