<svg width="816" height="252" viewBox="0 0 816 252" fill="none" xmlns="http://www.w3.org/2000/svg">
<path fill-rule="evenodd" clip-rule="evenodd" d="M122.76 88.9308L201.8 0.290771H237.96L166.28 78.0508L212.07 196.443L303.048 0.610767H378.888L400.967 203.811H378.5V86.4018C364.669 89.2898 350.396 89.2898 336.566 86.4018V203.811H326.087L321.608 152.931H262.408L239.688 203.811H214.92H208.648H145.16L117 114.531L90 251.811H0L72.2 0.610767H141.64L122.76 88.9308ZM272.967 129.571H319.367L312.008 42.5308L272.967 129.571ZM588.987 0.290771L509.948 88.9308L528.828 0.610767H459.388L416.188 203.811H485.307L504.188 114.531L532.348 203.811H595.835H602.107H626.875L649.595 152.931H708.795L713.275 203.811H816L766.075 0.610767H690.235L599.258 196.443L553.468 78.0508L625.148 0.290771H588.987ZM660.155 129.571H706.555L699.195 42.5308L660.155 129.571ZM750.123 123.882C750.213 123.883 750.304 123.886 750.394 123.89C750.22 123.859 750.048 123.83 749.879 123.803C746.862 123.314 743.737 123.506 740.803 124.353C740.677 123.659 740.463 122.978 740.166 122.34C739.782 122.921 739.476 123.554 739.267 124.218C737.543 124.546 735.879 125.179 734.369 126.074C734.413 125.58 734.33 125.074 734.133 124.615C733.714 125.174 733.426 125.829 733.299 126.515C732.487 126.615 731.732 127.091 731.291 127.781C731.252 127.436 731.213 127.091 731.178 126.746C730.44 128.07 729.327 129.188 728 129.93C728.637 127.93 729.567 126.013 730.864 124.366C731.68 123.331 732.64 122.401 733.732 121.668C735.015 120.803 736.464 120.213 737.94 119.751C740.638 118.903 743.492 118.462 746.299 118.764C747.01 118.841 747.721 118.968 748.413 119.155C748.202 118.911 747.988 118.673 747.779 118.442L747.776 118.439C747.692 118.345 747.608 118.253 747.526 118.161C745.409 115.798 742.89 113.794 740.122 112.248C738.568 111.383 736.931 110.658 735.238 110.1C739.075 108.955 743.335 109.65 746.845 111.576C747.329 111.841 747.802 112.131 748.252 112.45C748.131 110.848 748.149 109.253 748.277 107.728C748.421 105.995 748.761 104.195 749.831 102.824C750.132 103.003 750.407 103.226 750.638 103.488C750.228 102.339 751.175 101.178 752.114 100.396C753.314 99.396 754.62 98.527 756.008 97.8108C754.131 100.959 753.969 104.807 753.978 108.475C753.629 108.523 753.284 108.641 752.978 108.816C753.314 109.086 753.685 109.313 754.078 109.492C754.029 111.8 754.191 114.112 754.56 116.391C754.835 115.698 755.152 115.021 755.51 114.366C756.274 112.977 757.221 111.693 758.334 110.576C762.302 106.597 768.562 104.877 773.844 106.789C771.304 107.492 769.239 109.305 767.27 111.065L766.109 112.102L764.93 113.156L764.91 113.174C764.737 113.326 764.559 113.483 764.341 113.558C764.017 113.675 763.676 113.603 763.331 113.53C763.073 113.475 762.812 113.42 762.556 113.445C762.665 113.929 762.848 114.397 763.093 114.829C762.329 114.964 761.547 115.025 760.77 115.008C761.058 115.423 761.386 115.807 761.748 116.157C760.571 117.538 759.391 118.928 758.389 120.435C758.968 120.368 759.551 120.329 760.133 120.305C763.416 120.17 766.742 120.484 769.863 121.524C772.98 122.563 775.887 124.349 778.004 126.864C775.927 126.816 773.844 126.934 771.784 127.214L771.72 127.223C771.199 127.294 770.667 127.368 770.147 127.284C769.606 127.196 769.064 126.908 768.824 126.419C768.549 126.816 768.379 127.288 768.34 127.768C767.899 127.93 767.44 128.092 766.973 128.039C766.506 127.991 766.035 127.664 765.982 127.196L765.841 127.782L765.773 128.063L765.707 128.332C764.836 128.203 763.96 128.113 763.082 128.061C763.759 128.38 764.407 128.759 765.013 129.196C768.3 131.563 770.352 135.48 770.688 139.516C768.981 138.358 767.161 137.371 765.258 136.568L765.218 136.551C764.872 136.404 764.515 136.251 764.267 135.965C764.014 135.668 763.931 135.184 764.197 134.9C764.024 135.038 763.849 135.177 763.675 135.316C763.498 135.457 763.321 135.597 763.145 135.738C760.909 133.973 758.35 132.625 755.636 131.764L755.706 131.934C763.599 165.499 763.088 196.304 762.818 203.806H757.038C759.971 167.15 754.929 140.634 753.105 132.576L753.42 131.39C752.761 132.093 752.185 132.886 751.756 133.568C751.695 133.665 751.635 133.763 751.575 133.862C751.316 134.292 751.055 134.723 750.665 135.035C750.184 135.419 749.438 135.555 748.98 135.149C749.381 136.022 749.18 137.07 748.74 137.926C748.435 138.518 748.03 139.047 747.625 139.576C747.443 139.813 747.262 140.05 747.089 140.293C746.081 141.717 745.391 143.363 745.077 145.079C744.75 141.961 744.806 138.799 745.247 135.694C745.509 133.834 745.928 131.948 746.928 130.354C747.46 129.505 748.183 128.749 749.027 128.213C748.655 128.29 748.288 128.388 747.928 128.506C747.565 128.624 744.182 130.118 744.413 130.62C744.283 130.338 744.153 130.056 744.023 129.773C743.893 129.49 743.763 129.207 743.632 128.926C743.361 129.812 743.139 130.716 742.955 131.629C739.935 133.179 736.805 134.83 734.819 137.581C735.163 135.166 735.892 132.76 737.294 130.764C738.726 128.733 740.782 127.222 742.955 126.017C745.16 124.794 747.6 123.838 750.123 123.882ZM339.885 170.018H343.613V168.766H339.885V170.018ZM339.885 167.036H343.613V165.784H339.885V167.036ZM339.885 164.055H343.613V162.802H339.885V164.055ZM339.885 161.073H343.613V159.82H339.885V161.073ZM339.885 158.091H343.613V156.839H339.885V158.091ZM339.885 155.109H343.613V153.857H339.885V155.109ZM339.885 152.128H343.613V150.875H339.885V152.128ZM339.885 149.146H343.613V147.894H339.885V149.146ZM339.885 146.164H343.613V144.912H339.885V146.164ZM339.885 143.191H343.613V141.939H339.885V143.191ZM339.885 140.209H343.613V138.957H339.885V140.209ZM339.885 137.228H343.613V135.975H339.885V137.228ZM346.047 200.185H349.775V198.932H346.047V200.185ZM346.047 197.203H349.775V195.951H346.047V197.203ZM346.047 194.23H349.775V192.977H346.047V194.23ZM346.047 191.248H349.775V189.996H346.047V191.248ZM346.047 188.266H349.775V187.014H346.047V188.266ZM346.047 185.284H349.775V184.032H346.047V185.284ZM346.047 182.303H349.775V181.05H346.047V182.303ZM355.665 194.23H359.393V192.977H355.665V194.23ZM355.665 191.248H359.393V189.996H355.665V191.248ZM355.665 188.266H359.393V187.014H355.665V188.266ZM355.665 170.018H359.393V168.766H355.665V170.018ZM355.665 167.036H359.393V165.784H355.665V167.036ZM355.665 164.055H359.393V162.802H355.665V164.055ZM355.665 161.073H359.393V159.82H355.665V161.073ZM355.665 158.091H359.393V156.839H355.665V158.091ZM355.665 155.109H359.393V153.857H355.665V155.109ZM355.665 152.128H359.393V150.875H355.665V152.128ZM355.665 149.146H359.393V147.894H355.665V149.146ZM340.447 95.0488L354.048 123.052C355.401 126.059 359.665 126.059 361.018 123.052L374.627 95.0488C374.627 95.0488 368.644 92.7998 357.537 92.7998C346.43 92.7998 340.447 95.0488 340.447 95.0488ZM362.661 172.991H366.389V171.739H362.661V172.991ZM362.661 170.018H366.389V168.766H362.661V170.018ZM362.661 167.036H366.389V165.784H362.661V167.036ZM362.661 164.055H366.389V162.802H362.661V164.055ZM362.661 161.073H366.389V159.82H362.661V161.073ZM362.661 158.091H366.389V156.839H362.661V158.091ZM362.661 155.109H366.389V153.857H362.661V155.109ZM362.661 152.128H366.389V150.875H362.661V152.128ZM369.589 136.597H373.317V135.345H369.589V136.597ZM369.589 133.615H373.317V132.363H369.589V133.615ZM369.589 130.634H373.317V129.381H369.589V130.634ZM369.589 127.66H373.317V126.408H369.589V127.66Z" fill="white"/>
</svg>
